<svg width="20" height="21" viewBox="0 0 20 21" fill="none" xmlns="http://www.w3.org/2000/svg">
<path d="M1.66675 10.5C1.66675 10.5 4.69675 4.66666 10.0001 4.66666C15.3034 4.66666 18.3334 10.5 18.3334 10.5C18.3334 10.5 15.3034 16.3333 10.0001 16.3333C4.69675 16.3333 1.66675 10.5 1.66675 10.5Z" stroke="#1A1A1A" stroke-width="1.5" stroke-linecap="round" stroke-linejoin="round"/>
<path d="M10 13C10.663 13 11.2989 12.7366 11.7678 12.2678C12.2366 11.7989 12.5 11.163 12.5 10.5C12.5 9.83696 12.2366 9.20107 11.7678 8.73223C11.2989 8.26339 10.663 8 10 8C9.33696 8 8.70107 8.26339 8.23223 8.73223C7.76339 9.20107 7.5 9.83696 7.5 10.5C7.5 11.163 7.76339 11.7989 8.23223 12.2678C8.70107 12.7366 9.33696 13 10 13V13Z" stroke="#1A1A1A" stroke-width="1.5" stroke-linecap="round" stroke-linejoin="round"/>
</svg>
